<svg width="15" height="15" viewBox="0 0 15 15" fill="none" xmlns="http://www.w3.org/2000/svg">
<path d="M7.35967 0C5.39189 0 3.54262 0.779626 2.15177 2.19854C0.764033 3.61435 0 5.49792 0 7.5C0 9.50208 0.764033 11.3857 2.15177 12.8015C3.54262 14.2204 5.39189 15 7.35967 15C9.32744 15 11.1767 14.2204 12.5676 12.8015C13.9553 11.3857 14.7193 9.50208 14.7193 7.5C14.7193 5.49792 13.9553 3.61435 12.5676 2.19854C11.1767 0.782744 9.32744 0 7.35967 0ZM11.1455 7.12578C11.1175 5.88773 10.9428 4.73701 10.6559 3.73908C11.1642 3.48025 11.6414 3.15904 12.0842 2.7817C13.1726 3.91684 13.8711 5.43867 13.9615 7.12578H11.1455ZM9.43659 12.3773C8.8659 13.5686 8.10811 14.2516 7.35967 14.2516C6.61123 14.2516 5.85343 13.5686 5.28274 12.3773C5.17671 12.1528 5.07692 11.9158 4.98649 11.6694C5.73493 11.3763 6.5395 11.2204 7.35967 11.2204C8.17983 11.2204 8.98441 11.3763 9.73285 11.6694C9.64241 11.9158 9.54574 12.1528 9.43659 12.3773ZM10.4189 11.9844C10.8119 12.1933 11.1861 12.4459 11.5322 12.7328C10.8867 13.2723 10.1383 13.6871 9.32432 13.9459C9.75156 13.4439 10.1227 12.7734 10.4189 11.9844ZM5.39501 13.9459C4.58108 13.6871 3.83264 13.2692 3.18711 12.7328C3.53638 12.4428 3.90748 12.1933 4.30042 11.9844C4.59667 12.7734 4.96778 13.4439 5.39501 13.9459ZM7.35967 10.4688C6.45842 10.4688 5.579 10.6341 4.75884 10.9522C4.5 10.0229 4.35031 8.97193 4.32536 7.87422H10.4002C10.3721 8.97193 10.2225 10.0229 9.96674 10.9522C9.13721 10.6372 8.2578 10.4688 7.35967 10.4688ZM4.32225 7.12578C4.35031 6.02495 4.5 4.97713 4.75572 4.04782C5.579 4.3659 6.45842 4.53119 7.35655 4.53119C8.2578 4.53119 9.13721 4.3659 9.95738 4.04782C10.2162 4.97713 10.3659 6.02807 10.3909 7.12578H4.32225ZM5.28274 2.62266C5.85343 1.43139 6.61123 0.748441 7.35967 0.748441C8.10811 0.748441 8.8659 1.43139 9.43659 2.62266C9.54262 2.84719 9.64241 3.0842 9.73285 3.33056C8.98441 3.6237 8.17983 3.77963 7.35967 3.77963C6.5395 3.77963 5.73493 3.6237 4.98649 3.33056C5.07692 3.0842 5.1736 2.84719 5.28274 2.62266ZM4.30042 3.01559C3.90748 2.80665 3.53326 2.55405 3.18711 2.26715C3.83264 1.72765 4.58108 1.31289 5.39501 1.05405C4.96778 1.55613 4.59667 2.22661 4.30042 3.01559ZM9.32432 1.05405C10.1383 1.31289 10.8867 1.73077 11.5322 2.26715C11.183 2.55717 10.8119 2.80665 10.4189 3.01559C10.1227 2.22661 9.75156 1.55613 9.32432 1.05405ZM2.63514 2.7817C3.07796 3.15904 3.55509 3.48025 4.06341 3.73908C3.77651 4.74012 3.60187 5.88773 3.5738 7.12578H0.757796C0.848233 5.43867 1.5499 3.91684 2.63514 2.7817ZM0.757796 7.87422H3.5738C3.60187 9.11227 3.77651 10.263 4.06341 11.2609C3.55509 11.5198 3.07796 11.841 2.63514 12.2183C1.5499 11.0832 0.848233 9.56133 0.757796 7.87422ZM12.0842 12.2183C11.6414 11.841 11.1642 11.5198 10.6559 11.2609C10.9428 10.2599 11.1175 9.11227 11.1455 7.87422H13.9615C13.8711 9.56133 13.1694 11.0832 12.0842 12.2183Z" fill="#24CBB7"/>
</svg>
