<svg width="131" height="132" viewBox="0 0 131 132" fill="none" xmlns="http://www.w3.org/2000/svg">
<g filter="url(#filter0_d)">
<path d="M60.5699 49.753L60.5699 49.753C60.4161 49.1774 60.5402 48.8481 60.6938 48.694C60.847 48.5404 61.1739 48.416 61.7469 48.5698C61.7469 48.5698 61.7469 48.5698 61.7469 48.5698L66.0245 49.7184L66.1542 49.2355L66.0245 49.7184C66.5946 49.8715 67.2052 50.254 67.7205 50.7708C68.2358 51.2874 68.6176 51.9 68.7705 52.4724L68.7705 52.4724L70.1897 57.7839L70.1897 57.784C70.3436 58.3598 70.2194 58.6891 70.0659 58.8432C69.9128 58.9967 69.5859 59.121 69.013 58.9671L69.013 58.9671L64.735 57.8186C64.165 57.6656 63.5545 57.2831 63.0391 56.7664C62.5238 56.2497 62.1419 55.6371 61.989 55.0647L61.989 55.0646L60.5699 49.753Z" stroke="white"/>
</g>
<defs>
<filter id="filter0_d" x="0" y="0" width="130.76" height="131.537" filterUnits="userSpaceOnUse" color-interpolation-filters="sRGB">
<feFlood flood-opacity="0" result="BackgroundImageFix"/>
<feColorMatrix in="SourceAlpha" type="matrix" values="0 0 0 0 0 0 0 0 0 0 0 0 0 0 0 0 0 0 127 0"/>
<feOffset dy="12"/>
<feGaussianBlur stdDeviation="30"/>
<feColorMatrix type="matrix" values="0 0 0 0 0.00510415 0 0 0 0 0.118368 0 0 0 0 0.175 0 0 0 0.8 0"/>
<feBlend mode="normal" in2="BackgroundImageFix" result="effect1_dropShadow"/>
<feBlend mode="normal" in="SourceGraphic" in2="effect1_dropShadow" result="shape"/>
</filter>
</defs>
</svg>
