<svg width="160" height="61" viewBox="0 0 160 61" fill="none" xmlns="http://www.w3.org/2000/svg">
<path d="M51.7064 58.3055C52.154 59.9762 51.1625 60.968 49.4916 60.5207L33.2182 56.1642C31.5474 55.7169 29.83 53.9999 29.3823 52.3292L17.1133 6.5408C16.6657 4.87007 17.6572 3.87828 19.3281 4.32558L35.6015 8.68212C37.2723 9.12941 38.9897 10.8464 39.4374 12.5171L51.7064 58.3055Z" fill="#013E61"/>
<path d="M42.157 9.79297C43.4936 10.1508 44.8675 11.5244 45.2257 12.861L46.6847 18.3062C47.0428 19.6428 46.2496 20.4362 44.9129 20.0784L21.1587 13.7192C19.822 13.3613 18.4481 11.9877 18.09 10.6512L16.6309 5.20593C16.2728 3.86935 17.066 3.07592 18.4027 3.43375L42.157 9.79297Z" fill="url(#paint0_linear)"/>
<path d="M26.703 18.6578C28.0396 19.0157 29.4135 20.3893 29.7717 21.7258L31.1767 26.9694C31.5348 28.306 30.7415 29.0994 29.4049 28.7416L7.82435 22.9643C6.48768 22.6064 5.11378 21.2328 4.75564 19.8963L3.35064 14.6527C2.9925 13.3161 3.78575 12.5227 5.12242 12.8805L26.703 18.6578Z" fill="url(#paint1_linear)"/>
<path d="M34.077 20.3095C32.7403 19.9516 31.9471 20.7451 32.3052 22.0817L33.7102 27.3252C34.0684 28.6618 35.4423 30.0354 36.7789 30.3932L41.0144 31.5271C42.351 31.8849 43.1443 31.0915 42.7862 29.7549L41.3812 24.5114C41.023 23.1748 39.6491 21.8012 38.3124 21.4433L34.077 20.3095Z" fill="url(#paint2_linear)"/>
<path d="M42.7386 36.171C44.0753 36.5288 45.4492 37.9024 45.8073 39.239L47.2123 44.4826C47.5704 45.8192 46.7772 46.6126 45.4405 46.2548L23.86 40.4775C22.5233 40.1196 21.1494 38.746 20.7913 37.4094L19.3863 32.1659C19.0281 30.8293 19.8214 30.0359 21.1581 30.3937L42.7386 36.171Z" fill="url(#paint3_linear)"/>
<path d="M34.2674 47.139C35.6041 47.4969 36.978 48.8705 37.3361 50.207L38.7411 55.4506C39.0993 56.7872 38.306 57.5806 36.9693 57.2228L15.3888 51.4455C14.0521 51.0876 12.6782 49.714 12.3201 48.3775L10.9151 43.1339C10.557 41.7973 11.3502 41.0039 12.6869 41.3617L34.2674 47.139Z" fill="url(#paint4_linear)"/>
<path d="M6.6557 1.78173C7.99236 2.13956 9.36627 3.51316 9.72441 4.84975L11.1294 10.0933C11.4876 11.4299 10.6943 12.2233 9.35764 11.8655L5.12221 10.7316C3.78554 10.3738 2.41163 9.00018 2.05349 7.6636L0.648489 2.42005C0.290352 1.08346 1.0836 0.290028 2.42027 0.647864L6.6557 1.78173Z" fill="url(#paint5_linear)"/>
<path d="M14.2206 29.0976C15.5573 29.4555 16.9312 30.8291 17.2894 32.1657L18.6944 37.4092C19.0525 38.7458 18.2592 39.5392 16.9226 39.1814L12.6871 38.0475C11.3505 37.6897 9.97657 36.3161 9.61843 34.9795L8.21343 29.736C7.85529 28.3994 8.64855 27.6059 9.98521 27.9638L14.2206 29.0976Z" fill="url(#paint6_linear)"/>
<path d="M54.6865 39.26C56.0231 39.6178 57.397 40.9914 57.7552 42.328L59.1602 47.5716C59.5183 48.9082 58.7251 49.7016 57.3884 49.3437L53.153 48.2099C51.8163 47.8521 50.4424 46.4785 50.0843 45.1419L48.6793 39.8983C48.3211 38.5617 49.1144 37.7683 50.451 38.1261L54.6865 39.26Z" fill="url(#paint7_linear)"/>
<path d="M78.304 13.9965H73.8607V26.2499H71.4042V13.9965H67V12H78.304V13.9965Z" fill="white"/>
<path d="M83.7358 26.4456C82.2286 26.4456 81.0052 25.9726 80.0656 25.0265C79.1326 24.0739 78.6661 22.8081 78.6661 21.2291V20.9355C78.6661 19.8785 78.8684 18.9357 79.2729 18.1071C79.684 17.2719 80.2581 16.6227 80.9954 16.1595C81.7327 15.6962 82.5548 15.4646 83.4617 15.4646C84.9037 15.4646 86.0161 15.9246 86.7991 16.8446C87.5886 17.7645 87.9833 19.0662 87.9833 20.7496V21.7087H81.0639C81.1357 22.583 81.426 23.2746 81.935 23.7835C82.4504 24.2925 83.0964 24.5469 83.8728 24.5469C84.9624 24.5469 85.8498 24.1065 86.5349 23.2257L87.8169 24.4491C87.3928 25.082 86.8252 25.5746 86.114 25.9269C85.4093 26.2727 84.6166 26.4456 83.7358 26.4456ZM83.4519 17.3731C82.7995 17.3731 82.271 17.6014 81.8665 18.0582C81.4684 18.5149 81.214 19.151 81.1031 19.9666H85.6344V19.7905C85.5823 18.9944 85.3702 18.3942 84.9983 17.9896C84.6264 17.5786 84.1109 17.3731 83.4519 17.3731Z" fill="white"/>
<path d="M99.1111 21.0628C99.1111 22.7005 98.7392 24.0086 97.9954 24.9873C97.2516 25.9595 96.2533 26.4456 95.0006 26.4456C93.8392 26.4456 92.9095 26.0639 92.2113 25.3005V30.3213H89.8331V15.6603H92.0254L92.1232 16.7369C92.8214 15.8887 93.7707 15.4646 94.9712 15.4646C96.2631 15.4646 97.2745 15.9474 98.0052 16.9131C98.7425 17.8722 99.1111 19.2065 99.1111 20.916V21.0628ZM96.7427 20.8572C96.7427 19.8002 96.5306 18.9618 96.1065 18.342C95.689 17.7221 95.0887 17.4122 94.3057 17.4122C93.3336 17.4122 92.6354 17.8135 92.2113 18.616V23.3138C92.6419 24.1359 93.3466 24.5469 94.3253 24.5469C95.0822 24.5469 95.6726 24.2435 96.0968 23.6367C96.5274 23.0234 96.7427 22.0969 96.7427 20.8572Z" fill="white"/>
<path d="M107.42 23.3236L110.552 15.6603H113.527V26.2499H111.149V19.2424L108.233 26.2499H106.618L103.691 19.2032V26.2499H101.313V15.6603H104.308L107.42 23.3236Z" fill="white"/>
<path d="M122.815 15.6603H125.184V26.2499H122.815V19.1837L118.666 26.2499H116.297V15.6603H118.666V22.7266L122.815 15.6603Z" fill="white"/>
<path d="M136.683 26.2499H134.305V21.973H130.185V26.2499H127.807V15.6603H130.185V20.0743H134.305V15.6603H136.683V26.2499Z" fill="white"/>
<path d="M145.55 26.2499C145.446 26.0476 145.355 25.7181 145.276 25.2614C144.52 26.0509 143.593 26.4456 142.497 26.4456C141.433 26.4456 140.566 26.1422 139.894 25.5354C139.222 24.9286 138.886 24.1783 138.886 23.2844C138.886 22.1556 139.303 21.2911 140.138 20.6909C140.98 20.0841 142.18 19.7807 143.74 19.7807H145.198V19.0858C145.198 18.5377 145.045 18.1006 144.738 17.7743C144.431 17.4416 143.965 17.2752 143.339 17.2752C142.797 17.2752 142.353 17.4122 142.008 17.6862C141.662 17.9538 141.489 18.2963 141.489 18.7139H139.111C139.111 18.1332 139.303 17.5916 139.688 17.0892C140.073 16.5803 140.595 16.1823 141.254 15.8952C141.919 15.6081 142.66 15.4646 143.476 15.4646C144.715 15.4646 145.704 15.7778 146.441 16.4042C147.178 17.024 147.557 17.8983 147.576 19.0271V23.8031C147.576 24.7557 147.71 25.5158 147.978 26.0835V26.2499H145.55ZM142.937 24.5371C143.407 24.5371 143.848 24.423 144.259 24.1946C144.676 23.9662 144.989 23.6596 145.198 23.2746V21.2781H143.916C143.035 21.2781 142.373 21.4314 141.929 21.7381C141.486 22.0447 141.264 22.4786 141.264 23.0397C141.264 23.4965 141.414 23.8618 141.714 24.1359C142.021 24.4034 142.428 24.5371 142.937 24.5371Z" fill="white"/>
<path d="M159.066 15.6603V26.2499H156.688V17.5786H153.693L153.498 21.2683C153.374 23.043 153.031 24.3186 152.47 25.095C151.915 25.8649 151.064 26.2499 149.915 26.2499H149.181L149.172 24.2729L149.661 24.224C150.183 24.1522 150.561 23.8357 150.796 23.2746C151.038 22.707 151.191 21.6761 151.256 20.1819L151.452 15.6603H159.066Z" fill="white"/>
<path d="M78.8814 44.6108C78.7379 46.1311 78.1768 47.3186 77.1981 48.1733C76.2194 49.0215 74.9177 49.4456 73.293 49.4456C72.1577 49.4456 71.1562 49.1781 70.2884 48.6431C69.4272 48.1015 68.7617 47.3349 68.2919 46.3431C67.8221 45.3514 67.5774 44.1998 67.5579 42.8883V41.5573C67.5579 40.2132 67.796 39.029 68.2723 38.0046C68.7486 36.9802 69.4304 36.1908 70.3178 35.6362C71.2117 35.0816 72.2426 34.8043 73.4105 34.8043C74.9829 34.8043 76.2487 35.2316 77.2078 36.0864C78.167 36.9411 78.7248 38.1482 78.8814 39.7075H76.4151C76.2976 38.6832 75.9975 37.9459 75.5147 37.4957C75.0384 37.039 74.337 36.8106 73.4105 36.8106C72.3339 36.8106 71.5053 37.2053 70.9246 37.9948C70.3504 38.7778 70.0568 39.9294 70.0438 41.4496V42.7122C70.0438 44.252 70.3178 45.4264 70.8659 46.2355C71.4205 47.0445 72.2295 47.4491 73.293 47.4491C74.2652 47.4491 74.996 47.2305 75.4853 46.7933C75.9747 46.3562 76.2846 45.6287 76.4151 44.6108H78.8814Z" fill="white"/>
<path d="M85.5366 49.4456C84.0294 49.4456 82.806 48.9726 81.8665 48.0265C80.9334 47.0739 80.4669 45.8081 80.4669 44.2291V43.9355C80.4669 42.8785 80.6692 41.9357 81.0737 41.1071C81.4848 40.2719 82.0589 39.6227 82.7962 39.1595C83.5335 38.6962 84.3556 38.4646 85.2625 38.4646C86.7045 38.4646 87.8169 38.9246 88.5999 39.8446C89.3894 40.7645 89.7841 42.0662 89.7841 43.7496V44.7087H82.8647C82.9365 45.583 83.2268 46.2746 83.7358 46.7835C84.2512 47.2925 84.8972 47.5469 85.6736 47.5469C86.7632 47.5469 87.6506 47.1065 88.3357 46.2257L89.6178 47.4491C89.1937 48.082 88.626 48.5746 87.9148 48.9269C87.2102 49.2727 86.4174 49.4456 85.5366 49.4456ZM85.2528 40.3731C84.6003 40.3731 84.0718 40.6014 83.6673 41.0582C83.2693 41.5149 83.0148 42.151 82.9039 42.9666H87.4353V42.7905C87.3831 41.9944 87.171 41.3942 86.7991 40.9896C86.4272 40.5786 85.9117 40.3731 85.2528 40.3731Z" fill="white"/>
<path d="M100.912 44.0628C100.912 45.7005 100.54 47.0087 99.7962 47.9874C99.0524 48.9595 98.0541 49.4456 96.8014 49.4456C95.64 49.4456 94.7103 49.0639 94.0121 48.3005V53.3213H91.6339V38.6603H93.8262L93.924 39.7369C94.6222 38.8887 95.5715 38.4646 96.7721 38.4646C98.0639 38.4646 99.0753 38.9474 99.806 39.9131C100.543 40.8722 100.912 42.2065 100.912 43.916V44.0628ZM98.5435 43.8572C98.5435 42.8002 98.3314 41.9618 97.9073 41.342C97.4898 40.7221 96.8895 40.4122 96.1065 40.4122C95.1344 40.4122 94.4362 40.8135 94.0121 41.616V46.3138C94.4427 47.1359 95.1474 47.5469 96.1261 47.5469C96.883 47.5469 97.4735 47.2435 97.8976 46.6367C98.3282 46.0234 98.5435 45.0969 98.5435 43.8572Z" fill="white"/>
<path d="M103.114 49.2499V38.6603H107.411C108.859 38.6603 109.962 38.9148 110.719 39.4237C111.475 39.9261 111.854 40.6504 111.854 41.5964C111.854 42.0858 111.7 42.5262 111.394 42.9177C111.094 43.3026 110.647 43.5995 110.053 43.8083C110.745 43.9518 111.293 44.2422 111.697 44.6793C112.102 45.1165 112.304 45.6319 112.304 46.2257C112.304 47.2109 111.939 47.9613 111.208 48.4767C110.484 48.9921 109.44 49.2499 108.076 49.2499H103.114ZM105.492 44.7381V47.3708H108.096C109.316 47.3708 109.926 46.9336 109.926 46.0593C109.926 45.1785 109.306 44.7381 108.066 44.7381H105.492ZM105.492 43.0351H107.45C108.8 43.0351 109.476 42.6371 109.476 41.8411C109.476 41.006 108.836 40.5753 107.557 40.5492H105.492V43.0351Z" fill="white"/>
<path d="M120.975 38.6603H123.344V49.2499H120.975V42.1837L116.826 49.2499H114.457V38.6603H116.826V45.7266L120.975 38.6603Z" fill="white"/>
<path d="M130.224 47.5469C130.818 47.5469 131.31 47.374 131.702 47.0282C132.093 46.6824 132.302 46.255 132.328 45.7461H134.569C134.543 46.4051 134.338 47.0217 133.953 47.5959C133.568 48.1635 133.046 48.6137 132.387 48.9465C131.728 49.2792 131.017 49.4456 130.253 49.4456C128.772 49.4456 127.598 48.966 126.73 48.0069C125.862 47.0478 125.428 45.7233 125.428 44.0334V43.7887C125.428 42.1771 125.859 40.8885 126.72 39.9229C127.582 38.9507 128.756 38.4646 130.244 38.4646C131.503 38.4646 132.527 38.8332 133.317 39.5705C134.113 40.3013 134.53 41.2637 134.569 42.4577H132.328C132.302 41.8509 132.093 41.3518 131.702 40.9603C131.317 40.5688 130.824 40.3731 130.224 40.3731C129.454 40.3731 128.86 40.6536 128.443 41.2147C128.025 41.7693 127.813 42.6143 127.807 43.7496V44.1313C127.807 45.2796 128.012 46.1376 128.423 46.7053C128.841 47.2664 129.441 47.5469 130.224 47.5469Z" fill="white"/>
<defs>
<linearGradient id="paint0_linear" x1="45.9551" y1="15.5836" x2="21.1896" y2="22.2195" gradientUnits="userSpaceOnUse">
<stop stop-color="#499ECE"/>
<stop offset="1" stop-color="#003D60"/>
</linearGradient>
<linearGradient id="paint1_linear" x1="30.474" y1="24.3475" x2="7.59115" y2="30.479" gradientUnits="userSpaceOnUse">
<stop stop-color="#499ECE"/>
<stop offset="1" stop-color="#003D60"/>
</linearGradient>
<linearGradient id="paint2_linear" x1="33.0077" y1="24.7033" x2="40.8682" y2="22.597" gradientUnits="userSpaceOnUse">
<stop stop-color="#499ECE"/>
<stop offset="1" stop-color="#003D60"/>
</linearGradient>
<linearGradient id="paint3_linear" x1="46.5101" y1="41.861" x2="23.6273" y2="47.9924" gradientUnits="userSpaceOnUse">
<stop stop-color="#499ECE"/>
<stop offset="1" stop-color="#003D60"/>
</linearGradient>
<linearGradient id="paint4_linear" x1="38.039" y1="52.8287" x2="15.1561" y2="58.9602" gradientUnits="userSpaceOnUse">
<stop stop-color="#499ECE"/>
<stop offset="1" stop-color="#003D60"/>
</linearGradient>
<linearGradient id="paint5_linear" x1="10.4271" y1="7.47156" x2="2.56661" y2="9.57779" gradientUnits="userSpaceOnUse">
<stop stop-color="#499ECE"/>
<stop offset="1" stop-color="#003D60"/>
</linearGradient>
<linearGradient id="paint6_linear" x1="17.9916" y1="34.7872" x2="10.1311" y2="36.8935" gradientUnits="userSpaceOnUse">
<stop stop-color="#499ECE"/>
<stop offset="1" stop-color="#003D60"/>
</linearGradient>
<linearGradient id="paint7_linear" x1="58.4574" y1="44.9498" x2="50.5969" y2="47.0561" gradientUnits="userSpaceOnUse">
<stop stop-color="#499ECE"/>
<stop offset="1" stop-color="#003D60"/>
</linearGradient>
</defs>
</svg>
