<svg width="12" height="15" viewBox="0 0 12 15" fill="none" xmlns="http://www.w3.org/2000/svg">
<path d="M9.73705 1.66877C7.51203 -0.556257 3.89517 -0.556257 1.67015 1.66877C0.745418 2.5935 0.161546 3.82121 0.0289911 5.12466C-0.103564 6.42812 0.221511 7.74736 0.941095 8.83936C0.944251 8.84567 0.950563 8.85198 0.956875 8.86145L5.27122 14.7791C5.37221 14.9179 5.53317 15 5.7036 15C5.87403 15 6.03499 14.9179 6.13598 14.7791L10.4503 8.86145C10.4566 8.85514 10.4598 8.84882 10.4661 8.83936C11.1857 7.74736 11.5108 6.42496 11.3782 5.12466C11.2457 3.82121 10.6618 2.5935 9.73705 1.66877ZM9.5761 8.2397L5.7036 13.5514L1.83111 8.2397C1.25039 7.35285 0.991592 6.2861 1.0989 5.23197C1.2062 4.17469 1.67961 3.17737 2.43076 2.42623C3.30499 1.552 4.46958 1.06912 5.70676 1.06912C6.94393 1.06912 8.10537 1.552 8.98275 2.42623C9.7339 3.17737 10.2073 4.17469 10.3146 5.23197C10.4188 6.2861 10.1568 7.35285 9.5761 8.2397Z" fill="#24CBB7"/>
<path d="M5.7036 2.84914C4.34649 2.84914 3.24187 3.95376 3.24187 5.31087C3.24187 6.66798 4.34649 7.77261 5.7036 7.77261C7.06071 7.77261 8.16533 6.66798 8.16533 5.31087C8.16533 3.95376 7.06071 2.84914 5.7036 2.84914ZM5.7036 6.69954C4.93668 6.69954 4.31493 6.0778 4.31493 5.31087C4.31493 4.54395 4.93668 3.9222 5.7036 3.9222C6.47052 3.9222 7.09227 4.54395 7.09227 5.31087C7.09227 6.0778 6.47052 6.69954 5.7036 6.69954Z" fill="#24CBB7"/>
</svg>
