<svg width="15" height="15" viewBox="0 0 15 15" fill="none" xmlns="http://www.w3.org/2000/svg">
<path d="M11.7377 15H11.7372C8.83913 14.9998 5.55197 12.0317 4.27328 10.7557C2.87442 9.35991 -0.339182 5.78865 0.0291932 2.78058C0.167758 1.64974 0.796121 0.741215 1.89696 0.0801746C1.98553 0.0269629 2.08677 0 2.19784 0C3.06369 0 4.77129 2.02115 5.46251 2.99986C6.4505 4.3989 6.3105 4.7937 6.25783 4.94226C6.09033 5.41438 5.77874 5.68973 5.50393 5.9324C5.26341 6.14489 5.05574 6.32827 4.94985 6.62665C4.93521 6.69915 5.03128 7.09056 5.65875 7.86177C6.64477 9.07368 7.944 10.0495 8.36237 10.0495C8.6711 9.94381 8.85485 9.73614 9.06716 9.49562C9.31 9.22081 9.58517 8.9094 10.0575 8.74173C10.1239 8.71816 10.1975 8.70619 10.276 8.70619C11.2715 8.70619 14.1512 11.0679 14.8271 12.2608C14.8987 12.3874 15.1169 12.7728 14.9194 13.1022C14.1646 14.3616 13.0939 15 11.7377 15ZM2.22266 0.71818C1.33413 1.26405 0.84844 1.96758 0.738267 2.86736C0.509171 4.73745 2.01928 7.4975 4.77772 10.25C5.99373 11.4634 9.10573 14.2856 11.7376 14.2857H11.7379C12.8266 14.2857 13.6594 13.7917 14.2823 12.7758C14.1644 12.07 11.0297 9.43205 10.281 9.42062C9.99211 9.52812 9.81123 9.73257 9.60267 9.96863C9.35964 10.2436 9.0843 10.5552 8.61182 10.7229C8.5354 10.75 8.45165 10.7638 8.36255 10.7638C7.41634 10.7638 5.61071 9.06207 4.78325 7.89034C4.31756 7.23108 4.15185 6.73968 4.27685 6.38773C4.44434 5.91525 4.75611 5.63991 5.03092 5.39706C5.26734 5.18832 5.47197 5.00726 5.57929 4.71781C5.58321 4.4605 5.00074 3.42859 3.91329 2.19561C3.0203 1.18298 2.42087 0.762821 2.22266 0.71818Z" fill="#24CBB7"/>
</svg>
