<svg width="37" height="48" viewBox="0 0 37 48" fill="none" xmlns="http://www.w3.org/2000/svg">
<path fill-rule="evenodd" clip-rule="evenodd" d="M22.1221 36.2852C30.1889 34.6692 36.2661 27.5463 36.2661 19.0039C36.2661 9.26989 28.3751 1.37891 18.6411 1.37891C8.90709 1.37891 1.01611 9.26989 1.01611 19.0039C1.01611 27.5463 7.09331 34.6692 15.1601 36.2852L18.0235 41.2448C16.7505 41.5268 15.7984 42.6623 15.7984 44.0202C15.7984 45.5903 17.0711 46.863 18.6411 46.863C20.2111 46.863 21.4839 45.5903 21.4839 44.0202C21.4839 42.6623 20.5318 41.5268 19.2587 41.2448L22.1221 36.2852Z" fill="#01273A"/>
<path d="M22.1221 36.2852L22.0105 35.7277L21.7583 35.7782L21.6298 36.0009L22.1221 36.2852ZM15.1601 36.2852L15.6525 36.0009L15.5239 35.7783L15.2718 35.7277L15.1601 36.2852ZM18.0235 41.2448L18.1465 41.7999L18.9037 41.6321L18.5159 40.9605L18.0235 41.2448ZM19.2587 41.2448L18.7663 40.9605L18.3786 41.6321L19.1358 41.7999L19.2587 41.2448ZM22.2338 36.8427C30.5611 35.1745 36.8347 27.8225 36.8347 19.0039H35.6976C35.6976 27.27 29.8168 34.1639 22.0105 35.7277L22.2338 36.8427ZM36.8347 19.0039C36.8347 8.95589 28.6891 0.810358 18.6411 0.810358V1.94745C28.0611 1.94745 35.6976 9.58389 35.6976 19.0039H36.8347ZM18.6411 0.810358C8.59309 0.810358 0.447565 8.95589 0.447565 19.0039H1.58466C1.58466 9.58389 9.2211 1.94745 18.6411 1.94745V0.810358ZM0.447565 19.0039C0.447565 27.8225 6.72116 35.1745 15.0484 36.8427L15.2718 35.7277C7.46546 34.1639 1.58466 27.2701 1.58466 19.0039H0.447565ZM14.6677 36.5695L17.5311 41.5291L18.5159 40.9605L15.6525 36.0009L14.6677 36.5695ZM17.9006 40.6897C16.3728 41.0281 15.2298 42.39 15.2298 44.0202H16.3669C16.3669 42.9346 17.1282 42.0255 18.1465 41.7999L17.9006 40.6897ZM15.2298 44.0202C15.2298 45.9043 16.7571 47.4315 18.6411 47.4315V46.2944C17.3851 46.2944 16.3669 45.2763 16.3669 44.0202H15.2298ZM18.6411 47.4315C20.5251 47.4315 22.0524 45.9043 22.0524 44.0202H20.9153C20.9153 45.2763 19.8971 46.2944 18.6411 46.2944V47.4315ZM22.0524 44.0202C22.0524 42.3901 20.9095 41.0282 19.3817 40.6897L19.1358 41.7999C20.1541 42.0255 20.9153 42.9346 20.9153 44.0202H22.0524ZM19.7511 41.5291L22.6145 36.5695L21.6298 36.0009L18.7663 40.9605L19.7511 41.5291Z" fill="white"/>
<path d="M26.9598 28.3598C27.1073 28.9102 26.7806 29.2369 26.2303 29.0895L20.8697 27.6545C20.3193 27.5071 19.7536 26.9415 19.6062 26.3912L15.5647 11.3083C15.4172 10.7579 15.7439 10.4312 16.2942 10.5786L21.6548 12.0136C22.2052 12.161 22.7709 12.7266 22.9184 13.2769L26.9598 28.3598Z" fill="#013E61"/>
<path d="M23.8142 12.3794C24.2545 12.4973 24.707 12.9497 24.825 13.39L25.3056 15.1837C25.4236 15.624 25.1623 15.8853 24.722 15.7675L16.8972 13.6727C16.4569 13.5548 16.0044 13.1024 15.8864 12.6621L15.4058 10.8684C15.2878 10.4281 15.5491 10.1668 15.9894 10.2846L23.8142 12.3794Z" fill="url(#paint0_linear)"/>
<path d="M18.7236 15.2995C19.1639 15.4174 19.6165 15.8699 19.7345 16.3101L20.1973 18.0374C20.3153 18.4777 20.0539 18.739 19.6136 18.6211L12.5049 16.7181C12.0646 16.6002 11.612 16.1477 11.4941 15.7075L11.0313 13.9802C10.9133 13.5399 11.1746 13.2786 11.6149 13.3964L18.7236 15.2995Z" fill="url(#paint1_linear)"/>
<path d="M21.1527 15.8435C20.7124 15.7256 20.4511 15.987 20.5691 16.4272L21.0319 18.1545C21.1499 18.5948 21.6025 19.0472 22.0428 19.1651L23.4379 19.5386C23.8782 19.6565 24.1395 19.3951 24.0216 18.9548L23.5587 17.2276C23.4408 16.7873 22.9882 16.3348 22.5479 16.217L21.1527 15.8435Z" fill="url(#paint2_linear)"/>
<path d="M24.0058 21.0686C24.4461 21.1864 24.8987 21.6389 25.0167 22.0792L25.4795 23.8064C25.5975 24.2467 25.3362 24.5081 24.8959 24.3902L17.7871 22.4871C17.3468 22.3692 16.8943 21.9168 16.7763 21.4765L16.3135 19.7493C16.1955 19.309 16.4568 19.0476 16.8971 19.1655L24.0058 21.0686Z" fill="url(#paint3_linear)"/>
<path d="M21.2153 24.6816C21.6556 24.7995 22.1082 25.2519 22.2262 25.6922L22.689 27.4195C22.807 27.8597 22.5456 28.1211 22.1053 28.0032L14.9966 26.1002C14.5563 25.9823 14.1037 25.5298 13.9858 25.0895L13.523 23.3623C13.405 22.922 13.6663 22.6607 14.1066 22.7785L21.2153 24.6816Z" fill="url(#paint4_linear)"/>
<path d="M12.1199 9.74065C12.5602 9.85852 13.0128 10.311 13.1308 10.7513L13.5936 12.4785C13.7116 12.9188 13.4503 13.1802 13.01 13.0623L11.6148 12.6888C11.1745 12.5709 10.7219 12.1184 10.6039 11.6782L10.1411 9.95091C10.0231 9.51064 10.2844 9.24927 10.7248 9.36715L12.1199 9.74065Z" fill="url(#paint5_linear)"/>
<path d="M14.6119 18.7387C15.0522 18.8566 15.5047 19.309 15.6227 19.7493L16.0855 21.4766C16.2035 21.9168 15.9422 22.1782 15.5019 22.0603L14.1067 21.6868C13.6664 21.569 13.2138 21.1165 13.0959 20.6762L12.6331 18.949C12.5151 18.5087 12.7764 18.2473 13.2167 18.3652L14.6119 18.7387Z" fill="url(#paint6_linear)"/>
<path d="M27.9415 22.0861C28.3818 22.204 28.8343 22.6564 28.9523 23.0967L29.4151 24.824C29.5331 25.2643 29.2718 25.5256 28.8315 25.4077L27.4363 25.0342C26.996 24.9164 26.5434 24.4639 26.4255 24.0236L25.9627 22.2964C25.8447 21.8561 26.106 21.5947 26.5463 21.7126L27.9415 22.0861Z" fill="url(#paint7_linear)"/>
<defs>
<linearGradient id="paint0_linear" x1="25.0653" y1="14.2869" x2="16.9074" y2="16.4728" gradientUnits="userSpaceOnUse">
<stop stop-color="#499ECE"/>
<stop offset="1" stop-color="#003D60"/>
</linearGradient>
<linearGradient id="paint1_linear" x1="19.9658" y1="17.1737" x2="12.4281" y2="19.1935" gradientUnits="userSpaceOnUse">
<stop stop-color="#499ECE"/>
<stop offset="1" stop-color="#003D60"/>
</linearGradient>
<linearGradient id="paint2_linear" x1="20.8005" y1="17.2908" x2="23.3898" y2="16.597" gradientUnits="userSpaceOnUse">
<stop stop-color="#499ECE"/>
<stop offset="1" stop-color="#003D60"/>
</linearGradient>
<linearGradient id="paint3_linear" x1="25.2482" y1="22.9429" x2="17.7105" y2="24.9626" gradientUnits="userSpaceOnUse">
<stop stop-color="#499ECE"/>
<stop offset="1" stop-color="#003D60"/>
</linearGradient>
<linearGradient id="paint4_linear" x1="22.4577" y1="26.5558" x2="14.92" y2="28.5755" gradientUnits="userSpaceOnUse">
<stop stop-color="#499ECE"/>
<stop offset="1" stop-color="#003D60"/>
</linearGradient>
<linearGradient id="paint5_linear" x1="13.3623" y1="11.6149" x2="10.773" y2="12.3087" gradientUnits="userSpaceOnUse">
<stop stop-color="#499ECE"/>
<stop offset="1" stop-color="#003D60"/>
</linearGradient>
<linearGradient id="paint6_linear" x1="15.854" y1="20.6129" x2="13.2647" y2="21.3067" gradientUnits="userSpaceOnUse">
<stop stop-color="#499ECE"/>
<stop offset="1" stop-color="#003D60"/>
</linearGradient>
<linearGradient id="paint7_linear" x1="29.1836" y1="23.9604" x2="26.5943" y2="24.6542" gradientUnits="userSpaceOnUse">
<stop stop-color="#499ECE"/>
<stop offset="1" stop-color="#003D60"/>
</linearGradient>
</defs>
</svg>
