<svg width="15" height="12" viewBox="0 0 15 12" fill="none" xmlns="http://www.w3.org/2000/svg">
<path d="M12.5216 0H2.08706C0.936478 0 0 0.936478 0 2.08706V9.91294C0 11.0635 0.936478 12 2.08706 12H12.5216C13.6722 12 14.6086 11.0635 14.6086 9.91294V2.08706C14.6086 0.936324 13.6722 0 12.5216 0ZM13.9127 2.08706C13.9127 2.20609 13.8968 2.32249 13.8682 2.43503C13.7836 2.7626 13.5816 3.05244 13.2922 3.24567L8.07508 6.72369C7.61843 7.02822 6.99035 7.02822 6.53371 6.72369L1.31645 3.24567C1.02707 3.05244 0.825022 2.7626 0.740464 2.43503C0.711711 2.32249 0.695943 2.20609 0.695943 2.08706C0.695943 1.96633 0.716349 1.85131 0.744947 1.73909C0.90046 1.14084 1.44089 0.695943 2.08706 0.695943H12.5216C13.1677 0.695943 13.7082 1.14084 13.8637 1.73909C13.8923 1.85116 13.9127 1.96617 13.9127 2.08706ZM12.5216 11.3041H2.08706C1.83369 11.3041 1.5995 11.2311 1.39451 11.1124L4.77885 6.39025L6.14802 7.30277C6.49104 7.5314 6.8908 7.65229 7.30432 7.65229C7.71783 7.65229 8.11774 7.53156 8.46061 7.30277L9.82978 6.39025L13.2141 11.1122C13.0091 11.2311 12.7749 11.3041 12.5216 11.3041ZM0.930759 3.8246L4.19978 6.00379L0.893658 10.6166C0.770917 10.4095 0.695943 10.1706 0.695943 9.91279V3.64002C0.769526 3.70603 0.846973 3.76864 0.930759 3.8246ZM13.9127 9.91279C13.9127 10.1706 13.8377 10.4095 13.715 10.6166L10.4089 6.00363L13.6779 3.8246C13.7617 3.76879 13.8391 3.70603 13.9127 3.64018V9.91279Z" fill="#24CBB7"/>
</svg>
